Coordinates
version=1
nRows=17
nColumns=24
inDegrees=yes

Units are S.I. units (second, meters, Newtons, ...)
Angles are in degrees.

endheader
time	pelvis_tilt	pelvis_list	pelvis_rotation	pelvis_tx	pelvis_ty	pelvis_tz	hip_flexion_r	hip_adduction_r	hip_rotation_r	knee_angle_r	ankle_angle_r	subtalar_angle_r	mtp_angle_r	hip_flexion_l	hip_adduction_l	hip_rotation_l	knee_angle_l	ankle_angle_l	subtalar_angle_l	mtp_angle_l	lumbar_extension	lumbar_bending	lumbar_rotation
      0.45800000	     -3.27562564	      2.18162357	      0.08070553	     -0.81816572	      1.04217801	      0.25774297	     29.31361379	     -2.48444876	     -0.26149777	     -3.44472167	     10.40061872	     -3.82150522	      9.34885328	    -14.51272954	      3.52474114	      4.41666486	     -4.26865357	     17.49895526	      3.89418057	      3.22067932	    -16.16020524	     -0.53168416	     -5.74360262
      0.46216667	     -3.27523013	      2.19009507	      0.26007783	     -0.81242752	      1.04127907	      0.25779921	     29.20768840	     -2.53822436	     -0.00721727	     -3.72443434	     10.33210393	     -3.93443535	      9.34713468	    -14.65933293	      3.47543222	      4.49277468	     -4.65757044	     17.63151645	      4.06446423	      3.26404784	    -16.14380368	     -0.38207670	     -5.83657113
      0.46633333	     -3.30316239	      2.19359993	      0.43761554	     -0.80662925	      1.04037556	      0.25788244	     29.11705381	     -2.58170920	      0.23808321	     -4.00460465	     10.22146191	     -4.08053330	      9.35067589	    -14.75135145	      3.41732432	      4.50764925	     -5.10194814	     17.76620735	      4.29450899	      3.33842823	    -16.08421414	     -0.23212940	     -5.90063641
      0.47050000	     -3.30334053	      2.19900677	      0.61476111	     -0.80080783	      1.03954845	      0.25795424	     29.00515226	     -2.62901136	      0.38562402	     -4.32888562	     10.12828820	     -4.11719137	      9.35299096	    -14.89309394	      3.36326526	      4.62635771	     -5.50428659	     17.84751879	      4.36743335	      3.36621095	    -16.05614755	     -0.09586031	     -5.89682613
      0.47466667	     -3.30289693	      2.18725781	      0.77891890	     -0.79496446	      1.03876047	      0.25808617	     28.85994154	     -2.64509052	      0.62280276	     -4.60129925	      9.89058503	     -4.35333120	      9.37612734	    -14.98351386	      3.28070797	      4.52193777	     -6.01562777	     17.99135209	      4.81141488	      3.52694523	    -16.03735994	      0.08236388	     -6.00307340
      0.47883333	     -3.32047280	      2.17478724	      0.96715759	     -0.78904323	      1.03801650	      0.25814551	     28.73757699	     -2.67792723	      0.68246042	     -4.91010660	      9.68212951	     -4.39333368	      9.38161109	    -15.08358392	      3.20147732	      4.62540493	     -6.47224349	     18.02789729	      4.90188831	      3.57335268	    -15.97100957	      0.24436717	     -5.99052082
      0.48300000	     -3.34235839	      2.15087901	      1.13640140	     -0.78311752	      1.03730007	      0.25827969	     28.59527944	     -2.68224786	      0.85106670	     -5.17460978	      9.36682531	     -4.62581986	      9.44078555	    -15.12163181	      3.09839555	      4.46809827	     -7.04012592	     18.13468694	      5.41530674	      3.86382240	    -15.91971409	      0.42651519	     -6.05945963
      0.48716667	     -3.34920324	      2.11375172	      1.30786069	     -0.77715828	      1.03667093	      0.25839091	     28.44254899	     -2.67759180	      0.90829888	     -5.46420746	      9.02083702	     -4.78641371	      9.51039078	    -15.18213247	      2.98466833	      4.40298394	     -7.59658544	     18.17404006	      5.74198540	      4.18343609	    -15.87171331	      0.62852895	     -6.10293110
      0.49133333	     -3.34357060	      2.06053540	      1.46438697	     -0.77116979	      1.03611188	      0.25853125	     28.28150461	     -2.64944028	      0.92264455	     -5.77076464	      8.64462246	     -4.94337473	      9.57083905	    -15.25547786	      2.85527633	      4.33721402	     -8.15237504	     18.18364917	      6.04991507	      4.46232753	    -15.84115513	      0.86215960	     -6.12021211
      0.49550000	     -3.37411893	      2.01321538	      1.62323901	     -0.76515476	      1.03557096	      0.25868061	     28.15857730	     -2.62843334	      0.91314191	     -6.08032832	      8.21343596	     -5.09829735	      9.64628362	    -15.25938672	      2.73035033	      4.24648212	     -8.76901166	     18.16874597	      6.38361908	      4.81214213	    -15.75927987	      1.06565446	     -6.10982931
      0.49966667	     -3.38914840	      1.95975270	      1.78156119	     -0.75912273	      1.03513042	      0.25880374	     28.03434254	     -2.60788301	      0.78960543	     -6.42610075	      7.79837010	     -5.12767997	      9.65303097	    -15.30286217	      2.60950125	      4.31263203	     -9.33768263	     18.05493133	      6.43915172	      4.87929911	    -15.68711820	      1.27641931	     -6.06000354
      0.50383333	     -3.41772918	      1.85962286	      1.92693860	     -0.75306036	      1.03472648	      0.25898479	     27.89901137	     -2.52712112	      0.76742035	     -6.72310831	      7.30125835	     -5.39030577	      9.71326869	    -15.24985681	      2.42112114	      4.07556950	    -10.06983989	     18.04723924	      6.95390636	      5.20399043	    -15.61043894	      1.57045527	     -6.07440931
      0.50800000	     -3.44161210	      1.78427869	      2.04349668	     -0.74702214	      1.03438932	      0.25921937	     27.80315675	     -2.46252545	      0.67983597	     -7.10103194	      6.77828902	     -5.53577974	      9.81728328	    -15.20202563	      2.26884188	      3.88854602	    -10.79297889	     17.95915057	      7.39017527	      5.75845594	    -15.54730679	      1.79313561	     -6.00329372
      0.51216667	     -3.44191870	      1.68987070	      2.16933070	     -0.74097082	      1.03418455	      0.25941645	     27.69025817	     -2.39044964	      0.49887496	     -7.50403573	      6.31603166	     -5.57530910	     10.39393178	    -15.17671054	      2.10139825	      3.80400241	    -11.50521950	     17.73629749	      7.55383170	      8.87989902	    -15.51135609	      2.04150385	     -5.83039055
      0.51633333	     -3.48896507	      1.58227347	      2.27684152	     -0.73488287	      1.03397159	      0.25966200	     27.63481430	     -2.29532307	      0.36760598	     -7.92627216	      5.82012801	     -5.72564177	     10.38315170	    -15.07515586	      1.92466760	      3.68781365	    -12.28131278	     17.53966363	      7.78406035	      8.96181462	    -15.39859910	      2.33667287	     -5.87838264
      0.52050000	     -3.51632019	      1.46451341	      2.36346092	     -0.72880363	      1.03385636	      0.25994141	     27.58131865	     -2.18505702	      0.20384522	     -8.39474269	      5.36015593	     -5.80197757	     10.37793479	    -14.96696070	      1.73722172	      3.50786941	    -13.10426844	     17.32488972	      8.09046186	      9.12584355	    -15.32420160	      2.61305679	     -5.74694345
      0.52466667	     -3.54868671	      1.33888006	      2.43590794	     -0.72271907	      1.03380416	      0.26025408	     27.55068475	     -2.06345852	      0.03159274	     -8.90288088	      4.93263411	     -5.86191968	     10.37522535	    -14.82924940	      1.54538793	      3.32857376	    -13.97242608	     17.07147107	      8.35696316	      9.36380990	    -15.24280447	      2.90134272	     -5.63139131
